<svg width="342" height="619" viewBox="0 0 342 619" fill="none" xmlns="http://www.w3.org/2000/svg">
<rect width="342" height="619" fill="white"/>
<circle cx="195.5" cy="61.5" r="58.5" fill="#1B9246"/>
<ellipse cx="195.5" cy="61" rx="47.5" ry="48" fill="#236B3D"/>
<line x1="175.669" y1="46.2567" x2="195.669" y2="64.2567" stroke="white" stroke-width="2"/>
<line x1="194.317" y1="64.2697" x2="225.317" y2="35.2697" stroke="white" stroke-width="2"/>
<rect x="117" y="193" width="157" height="260" fill="#D9D9D9"/>
<rect x="137" y="213" width="117" height="142" fill="#989898"/>
<path d="M159.788 378.064V377.664L160.108 377.632C160.481 377.589 160.764 377.536 160.956 377.472C161.159 377.408 161.297 377.259 161.372 377.024C161.447 376.789 161.484 376.405 161.484 375.872V367.616C161.388 367.499 161.244 367.371 161.052 367.232C160.86 367.083 160.577 367.008 160.204 367.008H159.724V366.592L162.828 366.64C163.02 366.907 163.276 367.259 163.596 367.696C163.927 368.133 164.289 368.619 164.684 369.152C165.089 369.685 165.505 370.235 165.932 370.8C166.359 371.355 166.769 371.893 167.164 372.416C167.569 372.939 167.932 373.408 168.252 373.824C168.572 374.24 168.823 374.571 169.004 374.816V368.768C169.004 368.235 168.967 367.856 168.892 367.632C168.817 367.397 168.679 367.248 168.476 367.184C168.284 367.109 168.001 367.056 167.628 367.024L167.308 366.992V366.592L169.388 366.64L171.34 366.592V366.992L171.02 367.024C170.657 367.067 170.375 367.125 170.172 367.2C169.969 367.264 169.831 367.408 169.756 367.632C169.681 367.856 169.644 368.235 169.644 368.768V378H169.164C168.993 377.648 168.737 377.216 168.396 376.704C168.065 376.181 167.681 375.611 167.244 374.992C166.807 374.373 166.348 373.744 165.868 373.104C165.399 372.453 164.929 371.824 164.46 371.216C163.991 370.608 163.553 370.053 163.148 369.552C162.743 369.051 162.401 368.635 162.124 368.304V375.872C162.124 376.405 162.161 376.789 162.236 377.024C162.311 377.259 162.449 377.408 162.652 377.472C162.855 377.536 163.137 377.589 163.5 377.632L163.82 377.664V378.064L161.772 378L159.788 378.064ZM175.752 378.176C175.069 378.176 174.445 378.011 173.88 377.68C173.325 377.349 172.882 376.907 172.552 376.352C172.232 375.787 172.072 375.163 172.072 374.48C172.072 373.776 172.232 373.141 172.552 372.576C172.882 372.011 173.325 371.563 173.88 371.232C174.445 370.901 175.069 370.736 175.752 370.736C176.445 370.736 177.069 370.901 177.624 371.232C178.178 371.563 178.616 372.011 178.936 372.576C179.266 373.141 179.432 373.776 179.432 374.48C179.432 375.163 179.266 375.787 178.936 376.352C178.616 376.907 178.178 377.349 177.624 377.68C177.069 378.011 176.445 378.176 175.752 378.176ZM175.752 377.776C176.328 377.776 176.792 377.632 177.144 377.344C177.496 377.045 177.752 376.651 177.912 376.16C178.072 375.659 178.152 375.099 178.152 374.48C178.152 373.84 178.072 373.269 177.912 372.768C177.752 372.267 177.496 371.872 177.144 371.584C176.792 371.285 176.328 371.136 175.752 371.136C175.176 371.136 174.712 371.285 174.36 371.584C174.008 371.872 173.752 372.267 173.592 372.768C173.432 373.269 173.352 373.84 173.352 374.48C173.352 375.099 173.432 375.659 173.592 376.16C173.752 376.651 174.008 377.045 174.36 377.344C174.712 377.632 175.176 377.776 175.752 377.776ZM183.812 378L181.204 372.24C181.108 372.027 180.991 371.845 180.852 371.696C180.714 371.547 180.506 371.456 180.228 371.424L179.94 371.392V371.024L181.588 371.072L183.22 371.024V371.392L182.964 371.424C182.73 371.456 182.564 371.515 182.468 371.6C182.372 371.675 182.324 371.781 182.324 371.92C182.324 372.037 182.367 372.197 182.452 372.4L184.468 376.848L186.34 372.464C186.436 372.251 186.484 372.075 186.484 371.936C186.484 371.659 186.239 371.488 185.748 371.424L185.476 371.392V371.024L186.916 371.072L188.26 371.024V371.392L187.892 371.44C187.594 371.483 187.364 371.6 187.204 371.792C187.044 371.973 186.884 372.251 186.724 372.624L184.42 378H183.812ZM191.997 378.176C191.293 378.176 190.68 378.027 190.157 377.728C189.635 377.419 189.224 376.997 188.925 376.464C188.637 375.92 188.493 375.301 188.493 374.608C188.493 373.861 188.653 373.2 188.973 372.624C189.293 372.037 189.72 371.579 190.253 371.248C190.797 370.907 191.395 370.736 192.045 370.736C192.867 370.736 193.507 370.997 193.965 371.52C194.435 372.043 194.669 372.731 194.669 373.584C194.669 373.712 194.664 373.819 194.653 373.904C194.643 373.989 194.632 374.048 194.621 374.08H189.789C189.779 374.229 189.773 374.379 189.773 374.528C189.773 375.093 189.864 375.621 190.045 376.112C190.227 376.592 190.499 376.976 190.861 377.264C191.235 377.552 191.688 377.696 192.221 377.696C192.723 377.696 193.165 377.557 193.549 377.28C193.944 376.992 194.248 376.571 194.461 376.016L194.845 376.16C194.397 377.504 193.448 378.176 191.997 378.176ZM192.045 371.136C191.384 371.136 190.867 371.371 190.493 371.84C190.131 372.309 189.907 372.933 189.821 373.712H191.853C192.333 373.712 192.696 373.659 192.941 373.552C193.197 373.435 193.368 373.296 193.453 373.136C193.549 372.965 193.597 372.8 193.597 372.64C193.597 372.171 193.437 371.803 193.117 371.536C192.797 371.269 192.44 371.136 192.045 371.136ZM195.846 378.048V377.68L196.102 377.648C196.412 377.605 196.646 377.557 196.806 377.504C196.977 377.44 197.094 377.307 197.158 377.104C197.222 376.891 197.254 376.544 197.254 376.064V372.688C197.254 372.304 197.196 372.021 197.078 371.84C196.972 371.648 196.812 371.525 196.598 371.472C196.385 371.419 196.134 371.392 195.846 371.392V371.024C196.284 371.024 196.705 371.013 197.11 370.992C197.516 370.96 197.937 370.907 198.374 370.832V372.08C198.609 371.717 198.934 371.403 199.35 371.136C199.777 370.869 200.268 370.736 200.822 370.736C201.388 370.736 201.857 370.859 202.23 371.104C202.614 371.339 202.87 371.712 202.998 372.224C203.222 371.84 203.553 371.499 203.99 371.2C204.428 370.891 204.945 370.736 205.542 370.736C206.236 370.736 206.785 370.917 207.19 371.28C207.606 371.643 207.814 372.219 207.814 373.008V376.064C207.814 376.533 207.841 376.875 207.894 377.088C207.958 377.291 208.07 377.424 208.23 377.488C208.401 377.552 208.641 377.605 208.95 377.648L209.206 377.68V378.048L207.254 378L205.446 378.048V377.68L205.702 377.648C205.969 377.616 206.172 377.568 206.31 377.504C206.46 377.44 206.561 377.307 206.614 377.104C206.668 376.891 206.694 376.544 206.694 376.064V372.736C206.694 372.267 206.566 371.899 206.31 371.632C206.054 371.355 205.692 371.216 205.222 371.216C204.838 371.216 204.502 371.301 204.214 371.472C203.926 371.643 203.686 371.856 203.494 372.112C203.313 372.368 203.18 372.619 203.094 372.864C203.094 372.907 203.094 372.955 203.094 373.008V376.064C203.094 376.544 203.121 376.891 203.174 377.104C203.228 377.307 203.324 377.44 203.462 377.504C203.612 377.557 203.82 377.605 204.086 377.648L204.342 377.68V378.048L202.534 378L200.726 378.048V377.68L200.982 377.648C201.249 377.605 201.452 377.557 201.59 377.504C201.74 377.44 201.841 377.307 201.894 377.104C201.948 376.891 201.974 376.544 201.974 376.064V372.736C201.974 372.267 201.846 371.899 201.59 371.632C201.334 371.355 200.972 371.216 200.502 371.216C200.129 371.216 199.798 371.301 199.51 371.472C199.222 371.643 198.982 371.856 198.79 372.112C198.598 372.368 198.46 372.619 198.374 372.864V376.064C198.374 376.544 198.401 376.891 198.454 377.104C198.508 377.307 198.604 377.44 198.742 377.504C198.892 377.557 199.1 377.605 199.366 377.648L199.622 377.68V378.048L197.814 378L195.846 378.048ZM210.638 378.176V368.256C210.638 367.701 210.521 367.349 210.286 367.2C210.062 367.04 209.748 366.96 209.342 366.96H209.23V366.592C209.668 366.592 210.089 366.581 210.494 366.56C210.9 366.528 211.321 366.475 211.758 366.4V371.744C212.046 371.435 212.377 371.189 212.75 371.008C213.124 370.827 213.534 370.736 213.982 370.736C214.601 370.736 215.15 370.901 215.63 371.232C216.121 371.563 216.51 372.011 216.798 372.576C217.086 373.141 217.23 373.776 217.23 374.48C217.23 375.163 217.086 375.787 216.798 376.352C216.51 376.907 216.116 377.349 215.614 377.68C215.124 378.011 214.558 378.176 213.918 378.176C213.47 378.176 213.054 378.08 212.67 377.888C212.286 377.696 211.977 377.477 211.742 377.232L210.894 378.176H210.638ZM213.822 371.216C213.364 371.216 212.964 371.323 212.622 371.536C212.292 371.739 212.004 371.989 211.758 372.288V376.608C211.94 376.885 212.212 377.136 212.574 377.36C212.937 377.584 213.337 377.696 213.774 377.696C214.265 377.696 214.67 377.557 214.99 377.28C215.31 376.992 215.55 376.608 215.71 376.128C215.87 375.637 215.95 375.088 215.95 374.48C215.95 373.861 215.87 373.307 215.71 372.816C215.561 372.325 215.326 371.936 215.006 371.648C214.697 371.36 214.302 371.216 213.822 371.216ZM222.169 378.176C221.465 378.176 220.852 378.027 220.329 377.728C219.807 377.419 219.396 376.997 219.097 376.464C218.809 375.92 218.665 375.301 218.665 374.608C218.665 373.861 218.825 373.2 219.145 372.624C219.465 372.037 219.892 371.579 220.425 371.248C220.969 370.907 221.567 370.736 222.217 370.736C223.039 370.736 223.679 370.997 224.137 371.52C224.607 372.043 224.841 372.731 224.841 373.584C224.841 373.712 224.836 373.819 224.825 373.904C224.815 373.989 224.804 374.048 224.793 374.08H219.961C219.951 374.229 219.945 374.379 219.945 374.528C219.945 375.093 220.036 375.621 220.217 376.112C220.399 376.592 220.671 376.976 221.033 377.264C221.407 377.552 221.86 377.696 222.393 377.696C222.895 377.696 223.337 377.557 223.721 377.28C224.116 376.992 224.42 376.571 224.633 376.016L225.017 376.16C224.569 377.504 223.62 378.176 222.169 378.176ZM222.217 371.136C221.556 371.136 221.039 371.371 220.665 371.84C220.303 372.309 220.079 372.933 219.993 373.712H222.025C222.505 373.712 222.868 373.659 223.113 373.552C223.369 373.435 223.54 373.296 223.625 373.136C223.721 372.965 223.769 372.8 223.769 372.64C223.769 372.171 223.609 371.803 223.289 371.536C222.969 371.269 222.612 371.136 222.217 371.136ZM226.018 378.048V377.68L226.274 377.648C226.584 377.605 226.818 377.557 226.978 377.504C227.149 377.44 227.266 377.307 227.33 377.104C227.394 376.891 227.426 376.544 227.426 376.064V372.736C227.426 372.32 227.368 372.016 227.25 371.824C227.144 371.632 226.984 371.515 226.77 371.472C226.557 371.419 226.306 371.392 226.018 371.392V371.024C226.456 371.024 226.877 371.008 227.282 370.976C227.688 370.944 228.109 370.896 228.546 370.832L228.37 372.672H228.434C228.669 371.957 228.957 371.456 229.298 371.168C229.64 370.88 230.008 370.736 230.402 370.736C230.85 370.736 231.149 370.848 231.298 371.072C231.448 371.285 231.522 371.493 231.522 371.696C231.522 371.931 231.453 372.123 231.314 372.272C231.176 372.421 230.989 372.496 230.754 372.496C230.53 372.496 230.36 372.443 230.242 372.336C230.125 372.229 230.066 372.107 230.066 371.968C230.066 371.861 230.077 371.76 230.098 371.664C230.13 371.568 230.146 371.493 230.146 371.44C230.146 371.333 230.072 371.28 229.922 371.28C229.773 371.28 229.613 371.349 229.442 371.488C229.282 371.627 229.144 371.819 229.026 372.064C228.93 372.267 228.84 372.491 228.754 372.736C228.669 372.981 228.6 373.248 228.546 373.536V376.064C228.546 376.544 228.578 376.891 228.642 377.104C228.706 377.307 228.818 377.44 228.978 377.504C229.149 377.557 229.389 377.605 229.698 377.648L229.954 377.68V378.048L227.986 378L226.018 378.048Z" fill="black"/>
<line x1="227.5" y1="389.5" x2="243.5" y2="389.5" stroke="black" stroke-linecap="round" stroke-dasharray="7 7"/>
<line x1="148.5" y1="401.5" x2="243.5" y2="401.5" stroke="black" stroke-linecap="round" stroke-dasharray="7 7"/>
<line x1="148.5" y1="413.5" x2="243.5" y2="413.5" stroke="black" stroke-linecap="round" stroke-dasharray="7 7"/>
<line x1="148.5" y1="424.5" x2="243.5" y2="424.5" stroke="black" stroke-linecap="round" stroke-dasharray="7 7"/>
<line x1="148.5" y1="435.5" x2="243.5" y2="435.5" stroke="black" stroke-linecap="round" stroke-dasharray="7 7"/>
<circle cx="196" cy="203" r="4" fill="#989898"/>
</svg>
