<svg width="596" height="619" viewBox="0 0 596 619" fill="none" xmlns="http://www.w3.org/2000/svg">
<rect width="596" height="619" fill="white"/>
<rect x="61" y="122" width="485" height="20" fill="#BDBDBD"/>
<rect x="133" y="37" width="43" height="85" fill="#674C2F"/>
<rect x="176" y="21" width="30" height="101" fill="#32419B"/>
<rect x="206" y="37" width="22" height="85" fill="#63CCC7"/>
<rect x="228" y="30" width="19" height="92" fill="#47404B"/>
<rect x="274" width="48" height="122" fill="#5E5762"/>
<rect x="282" y="98" width="32" height="15" fill="#D9D9D9"/>
<circle cx="239.5" cy="204.5" r="33.5" fill="#6D99E6"/>
<path d="M250.187 166C271.647 172.76 284.988 195.311 277.627 218.679C270.266 242.047 243.645 248.339 226 242.78" stroke="#D99D3E" stroke-width="3"/>
<path d="M240.5 245V260.5" stroke="#D99D3E" stroke-width="3"/>
<path d="M252.5 263.5C252.5 263.725 252.332 264.054 251.742 264.445C251.17 264.824 250.311 265.183 249.204 265.493C246.997 266.111 243.92 266.5 240.5 266.5C237.08 266.5 234.003 266.111 231.796 265.493C230.689 265.183 229.83 264.824 229.258 264.445C228.668 264.054 228.5 263.725 228.5 263.5C228.5 263.275 228.668 262.946 229.258 262.555C229.83 262.176 230.689 261.817 231.796 261.507C234.003 260.889 237.08 260.5 240.5 260.5C243.92 260.5 246.997 260.889 249.204 261.507C250.311 261.817 251.17 262.176 251.742 262.555C252.332 262.946 252.5 263.275 252.5 263.5Z" fill="#D99D3E" stroke="#D99D3E"/>
<rect x="61" y="264" width="485" height="20" fill="#BDBDBD"/>
<rect x="61" y="568" width="486" height="51" fill="#BDBDBD"/>
<rect x="133" y="355" width="341" height="193" rx="8" fill="#989898"/>
<rect x="151" y="375" width="305" height="155" fill="white"/>
<rect x="278" y="548" width="52" height="20" fill="#BDBDBD"/>
<rect x="228" y="477" width="208" height="40" rx="20" fill="#D9D9D9"/>
<path d="M265.324 494.71C265.278 494.252 265.083 493.896 264.739 493.642C264.394 493.388 263.926 493.261 263.335 493.261C262.934 493.261 262.595 493.318 262.318 493.432C262.042 493.542 261.83 493.695 261.682 493.892C261.538 494.089 261.466 494.312 261.466 494.562C261.458 494.771 261.502 494.953 261.597 495.108C261.695 495.263 261.83 495.398 262 495.511C262.17 495.621 262.367 495.718 262.591 495.801C262.814 495.881 263.053 495.949 263.307 496.006L264.352 496.256C264.86 496.369 265.326 496.521 265.75 496.71C266.174 496.9 266.542 497.133 266.852 497.409C267.163 497.686 267.403 498.011 267.574 498.386C267.748 498.761 267.837 499.191 267.841 499.676C267.837 500.388 267.655 501.006 267.295 501.528C266.939 502.047 266.424 502.451 265.75 502.739C265.08 503.023 264.271 503.165 263.324 503.165C262.384 503.165 261.566 503.021 260.869 502.733C260.176 502.445 259.634 502.019 259.244 501.455C258.858 500.886 258.655 500.184 258.636 499.347H261.017C261.044 499.737 261.155 500.062 261.352 500.324C261.553 500.581 261.82 500.777 262.153 500.909C262.491 501.038 262.871 501.102 263.295 501.102C263.712 501.102 264.074 501.042 264.381 500.92C264.691 500.799 264.932 500.631 265.102 500.415C265.273 500.199 265.358 499.951 265.358 499.67C265.358 499.409 265.28 499.189 265.125 499.011C264.973 498.833 264.75 498.682 264.455 498.557C264.163 498.432 263.805 498.318 263.381 498.216L262.114 497.898C261.133 497.659 260.358 497.286 259.79 496.778C259.222 496.271 258.939 495.587 258.943 494.727C258.939 494.023 259.127 493.407 259.506 492.881C259.888 492.354 260.413 491.943 261.08 491.648C261.746 491.352 262.504 491.205 263.352 491.205C264.216 491.205 264.97 491.352 265.614 491.648C266.261 491.943 266.765 492.354 267.125 492.881C267.485 493.407 267.67 494.017 267.682 494.71H265.324ZM271.939 503.165C271.382 503.165 270.886 503.068 270.45 502.875C270.015 502.678 269.67 502.388 269.416 502.006C269.166 501.619 269.041 501.138 269.041 500.562C269.041 500.078 269.13 499.67 269.308 499.341C269.486 499.011 269.729 498.746 270.036 498.545C270.342 498.345 270.691 498.193 271.081 498.091C271.475 497.989 271.888 497.917 272.32 497.875C272.827 497.822 273.236 497.773 273.547 497.727C273.857 497.678 274.083 497.606 274.223 497.511C274.363 497.417 274.433 497.277 274.433 497.091V497.057C274.433 496.697 274.32 496.419 274.092 496.222C273.869 496.025 273.551 495.926 273.138 495.926C272.702 495.926 272.356 496.023 272.098 496.216C271.84 496.405 271.67 496.644 271.587 496.932L269.348 496.75C269.462 496.22 269.685 495.761 270.018 495.375C270.352 494.985 270.782 494.686 271.308 494.477C271.839 494.265 272.452 494.159 273.149 494.159C273.634 494.159 274.098 494.216 274.541 494.33C274.988 494.443 275.384 494.619 275.729 494.858C276.077 495.097 276.352 495.403 276.553 495.778C276.753 496.15 276.854 496.595 276.854 497.114V503H274.558V501.79H274.49C274.35 502.062 274.162 502.303 273.928 502.511C273.693 502.716 273.411 502.877 273.081 502.994C272.751 503.108 272.371 503.165 271.939 503.165ZM272.632 501.494C272.988 501.494 273.303 501.424 273.575 501.284C273.848 501.14 274.062 500.947 274.217 500.705C274.373 500.462 274.45 500.187 274.45 499.881V498.955C274.375 499.004 274.27 499.049 274.138 499.091C274.009 499.129 273.863 499.165 273.7 499.199C273.537 499.229 273.375 499.258 273.212 499.284C273.049 499.307 272.901 499.328 272.768 499.347C272.484 499.388 272.236 499.455 272.024 499.545C271.812 499.636 271.647 499.759 271.53 499.915C271.412 500.066 271.354 500.256 271.354 500.483C271.354 500.812 271.473 501.064 271.712 501.239C271.954 501.409 272.261 501.494 272.632 501.494ZM279.913 506.273C279.607 506.273 279.319 506.248 279.05 506.199C278.785 506.153 278.565 506.095 278.391 506.023L278.936 504.216C279.22 504.303 279.476 504.35 279.703 504.358C279.934 504.366 280.133 504.313 280.3 504.199C280.47 504.085 280.608 503.892 280.714 503.619L280.857 503.25L277.726 494.273H280.271L282.078 500.682H282.169L283.993 494.273H286.555L283.163 503.943C283 504.413 282.779 504.822 282.499 505.17C282.222 505.523 281.872 505.794 281.447 505.983C281.023 506.176 280.512 506.273 279.913 506.273ZM293.918 497.955V503H291.497V491.364H293.849V495.812H293.952C294.149 495.297 294.467 494.894 294.906 494.602C295.346 494.307 295.897 494.159 296.56 494.159C297.166 494.159 297.694 494.292 298.145 494.557C298.599 494.818 298.952 495.195 299.202 495.688C299.455 496.176 299.58 496.761 299.577 497.443V503H297.156V497.875C297.16 497.337 297.024 496.919 296.747 496.619C296.474 496.32 296.092 496.17 295.599 496.17C295.27 496.17 294.978 496.241 294.724 496.381C294.474 496.521 294.277 496.725 294.134 496.994C293.993 497.259 293.921 497.58 293.918 497.955ZM301.482 503V494.273H303.902V503H301.482ZM302.697 493.148C302.338 493.148 302.029 493.028 301.771 492.79C301.518 492.547 301.391 492.258 301.391 491.92C301.391 491.587 301.518 491.301 301.771 491.062C302.029 490.82 302.338 490.699 302.697 490.699C303.057 490.699 303.364 490.82 303.618 491.062C303.875 491.301 304.004 491.587 304.004 491.92C304.004 492.258 303.875 492.547 303.618 492.79C303.364 493.028 303.057 493.148 302.697 493.148ZM308.733 491.364L308.511 499.511H306.432L306.205 491.364H308.733ZM307.472 503.148C307.097 503.148 306.775 503.015 306.506 502.75C306.237 502.481 306.104 502.159 306.108 501.784C306.104 501.413 306.237 501.095 306.506 500.83C306.775 500.564 307.097 500.432 307.472 500.432C307.831 500.432 308.148 500.564 308.42 500.83C308.693 501.095 308.831 501.413 308.835 501.784C308.831 502.034 308.765 502.263 308.636 502.472C308.511 502.676 308.347 502.841 308.142 502.966C307.938 503.087 307.714 503.148 307.472 503.148Z" fill="black"/>
<rect x="151" y="375" width="305" height="11" fill="#266CE5"/>
<circle cx="416.857" cy="496.857" r="18.8571" fill="#266CE5"/>
<path d="M412.286 495.882H428M412.286 495.882L407.792 488.817C407.259 487.979 408.14 486.961 409.045 487.368L428 495.882M412.286 495.882L407.625 504.126C407.138 504.988 408.063 505.957 408.946 505.511L428 495.882" stroke="white" stroke-width="3"/>
<rect x="151" y="386" width="55" height="144" fill="#D9D9D9"/>
<circle cx="161" cy="401" r="5" fill="white"/>
<circle cx="161" cy="421" r="5" fill="white"/>
<circle cx="161" cy="441" r="5" fill="white"/>
<circle cx="161" cy="461" r="5" fill="white"/>
<circle cx="161" cy="481" r="5" fill="white"/>
<line x1="173" y1="400.5" x2="195" y2="400.5" stroke="white"/>
<line x1="173" y1="420.5" x2="195" y2="420.5" stroke="white"/>
<line x1="173" y1="440.5" x2="195" y2="440.5" stroke="white"/>
<line x1="173" y1="460.5" x2="195" y2="460.5" stroke="white"/>
<line x1="173" y1="480.5" x2="195" y2="480.5" stroke="white"/>
<rect x="343" y="169" width="68" height="95" fill="#D9D9D9"/>
<rect x="351" y="178" width="52" height="79" fill="#E7A7C0"/>
<rect x="411" y="71" width="48" height="51" fill="#674C2F"/>
<path d="M435.5 71C435.5 51.5 425 61.5 418 48.5M435.5 71C435.5 49 439.5 30 427 19.5M435.5 71C435.5 58.5 454 48 454 36" stroke="#1B9246" stroke-width="7"/>
</svg>
