<?xml version="1.0" encoding="UTF-8"?>
<svg id="Layer_1" data-name="Layer 1" xmlns="http://www.w3.org/2000/svg" viewBox="0 0 122 122">
  <defs>
    <style>
      .cls-1 {
        fill: #006eb8;
        stroke-width: 0px;
      }
    </style>
  </defs>
  <path class="cls-1" d="m77.5,29.39c0-8.85-7.17-16.02-16.02-16.02s-16.02,7.17-16.02,16.02h32.03Z"/>
  <path class="cls-1" d="m45.47,35.04c0,8.85,7.17,16.02,16.02,16.02s16.02-7.17,16.02-16.02h-32.03Z"/>
  <path class="cls-1" d="m99.65,64.79c-6.25-6.25-16.4-6.25-22.65,0-6.25,6.25-6.25,16.4,0,22.65l22.65-22.65Z"/>
  <path class="cls-1" d="m76.15,96.02c6.25,6.25,16.4,6.25,22.65,0s6.25-16.4,0-22.65l-22.65,22.65Z"/>
  <path class="cls-1" d="m44.87,87.43c6.25-6.25,6.25-16.4,0-22.65-6.25-6.25-16.4-6.25-22.65,0l22.65,22.65Z"/>
  <path class="cls-1" d="m23.2,73.37c-6.25,6.25-6.25,16.4,0,22.65,6.25,6.25,16.4,6.25,22.65,0l-22.65-22.65Z"/>
</svg>